<mxfile host="app.diagrams.net" modified="2024-03-21T17:49:23.823Z" agent="Mozilla/5.0 (Macintosh; Intel Mac OS X 10_15_7) AppleWebKit/537.36 (KHTML, like Gecko) Chrome/122.0.0.0 Safari/537.36" etag="yykGM_cgzA81GgjLxmUT" version="24.0.7" type="github">
  <diagram name="Page-1" id="NbFLTccC4KMndDqe9O7V">
    <mxGraphModel dx="1224" dy="712" grid="1" gridSize="10" guides="1" tooltips="1" connect="1" arrows="1" fold="1" page="1" pageScale="1" pageWidth="827" pageHeight="1169" math="0" shadow="0">
      <root>
        <mxCell id="0" />
        <mxCell id="1" parent="0" />
        <mxCell id="MgfGYnm2IxD8Tltnl5pM-23" style="edgeStyle=orthogonalEdgeStyle;rounded=0;orthogonalLoop=1;jettySize=auto;html=1;exitX=0.5;exitY=1;exitDx=0;exitDy=0;entryX=0.5;entryY=0;entryDx=0;entryDy=0;" edge="1" parent="1" source="MgfGYnm2IxD8Tltnl5pM-1" target="MgfGYnm2IxD8Tltnl5pM-5">
          <mxGeometry relative="1" as="geometry">
            <Array as="points">
              <mxPoint x="400" y="140" />
              <mxPoint x="480" y="140" />
            </Array>
          </mxGeometry>
        </mxCell>
        <mxCell id="MgfGYnm2IxD8Tltnl5pM-24" style="edgeStyle=orthogonalEdgeStyle;rounded=0;orthogonalLoop=1;jettySize=auto;html=1;entryX=0.5;entryY=0;entryDx=0;entryDy=0;" edge="1" parent="1" source="MgfGYnm2IxD8Tltnl5pM-1" target="MgfGYnm2IxD8Tltnl5pM-4">
          <mxGeometry relative="1" as="geometry">
            <Array as="points">
              <mxPoint x="400" y="140" />
              <mxPoint x="320" y="140" />
            </Array>
          </mxGeometry>
        </mxCell>
        <mxCell id="MgfGYnm2IxD8Tltnl5pM-25" style="edgeStyle=orthogonalEdgeStyle;rounded=0;orthogonalLoop=1;jettySize=auto;html=1;entryX=0.5;entryY=0;entryDx=0;entryDy=0;" edge="1" parent="1" source="MgfGYnm2IxD8Tltnl5pM-1" target="MgfGYnm2IxD8Tltnl5pM-3">
          <mxGeometry relative="1" as="geometry">
            <Array as="points">
              <mxPoint x="400" y="140" />
              <mxPoint x="160" y="140" />
            </Array>
          </mxGeometry>
        </mxCell>
        <mxCell id="MgfGYnm2IxD8Tltnl5pM-27" style="edgeStyle=orthogonalEdgeStyle;rounded=0;orthogonalLoop=1;jettySize=auto;html=1;entryX=0.5;entryY=0;entryDx=0;entryDy=0;" edge="1" parent="1" source="MgfGYnm2IxD8Tltnl5pM-1" target="MgfGYnm2IxD8Tltnl5pM-8">
          <mxGeometry relative="1" as="geometry">
            <Array as="points">
              <mxPoint x="400" y="140" />
              <mxPoint x="640" y="140" />
            </Array>
          </mxGeometry>
        </mxCell>
        <mxCell id="MgfGYnm2IxD8Tltnl5pM-1" value="NMT Project" style="rounded=1;whiteSpace=wrap;html=1;" vertex="1" parent="1">
          <mxGeometry x="340" y="70" width="120" height="60" as="geometry" />
        </mxCell>
        <mxCell id="MgfGYnm2IxD8Tltnl5pM-28" style="edgeStyle=orthogonalEdgeStyle;rounded=0;orthogonalLoop=1;jettySize=auto;html=1;entryX=0.5;entryY=0;entryDx=0;entryDy=0;" edge="1" parent="1" source="MgfGYnm2IxD8Tltnl5pM-3" target="MgfGYnm2IxD8Tltnl5pM-9">
          <mxGeometry relative="1" as="geometry" />
        </mxCell>
        <mxCell id="MgfGYnm2IxD8Tltnl5pM-3" value="Initiation" style="rounded=1;whiteSpace=wrap;html=1;" vertex="1" parent="1">
          <mxGeometry x="100" y="170" width="120" height="60" as="geometry" />
        </mxCell>
        <mxCell id="MgfGYnm2IxD8Tltnl5pM-30" style="edgeStyle=orthogonalEdgeStyle;rounded=0;orthogonalLoop=1;jettySize=auto;html=1;entryX=0.5;entryY=0;entryDx=0;entryDy=0;" edge="1" parent="1" source="MgfGYnm2IxD8Tltnl5pM-4" target="MgfGYnm2IxD8Tltnl5pM-11">
          <mxGeometry relative="1" as="geometry" />
        </mxCell>
        <mxCell id="MgfGYnm2IxD8Tltnl5pM-4" value="Planning" style="rounded=1;whiteSpace=wrap;html=1;" vertex="1" parent="1">
          <mxGeometry x="260" y="170" width="120" height="60" as="geometry" />
        </mxCell>
        <mxCell id="MgfGYnm2IxD8Tltnl5pM-32" style="edgeStyle=orthogonalEdgeStyle;rounded=0;orthogonalLoop=1;jettySize=auto;html=1;entryX=0.5;entryY=0;entryDx=0;entryDy=0;" edge="1" parent="1" source="MgfGYnm2IxD8Tltnl5pM-5" target="MgfGYnm2IxD8Tltnl5pM-13">
          <mxGeometry relative="1" as="geometry" />
        </mxCell>
        <mxCell id="MgfGYnm2IxD8Tltnl5pM-5" value="Development" style="rounded=1;whiteSpace=wrap;html=1;" vertex="1" parent="1">
          <mxGeometry x="420" y="170" width="120" height="60" as="geometry" />
        </mxCell>
        <mxCell id="MgfGYnm2IxD8Tltnl5pM-38" style="edgeStyle=orthogonalEdgeStyle;rounded=0;orthogonalLoop=1;jettySize=auto;html=1;entryX=0.5;entryY=0;entryDx=0;entryDy=0;" edge="1" parent="1" source="MgfGYnm2IxD8Tltnl5pM-8" target="MgfGYnm2IxD8Tltnl5pM-20">
          <mxGeometry relative="1" as="geometry" />
        </mxCell>
        <mxCell id="MgfGYnm2IxD8Tltnl5pM-8" value="Closeout" style="rounded=1;whiteSpace=wrap;html=1;" vertex="1" parent="1">
          <mxGeometry x="580" y="170" width="120" height="60" as="geometry" />
        </mxCell>
        <mxCell id="MgfGYnm2IxD8Tltnl5pM-9" value="Create charter" style="rounded=1;whiteSpace=wrap;html=1;" vertex="1" parent="1">
          <mxGeometry x="100" y="260" width="120" height="60" as="geometry" />
        </mxCell>
        <mxCell id="MgfGYnm2IxD8Tltnl5pM-31" style="edgeStyle=orthogonalEdgeStyle;rounded=0;orthogonalLoop=1;jettySize=auto;html=1;entryX=0.5;entryY=0;entryDx=0;entryDy=0;" edge="1" parent="1" source="MgfGYnm2IxD8Tltnl5pM-11" target="MgfGYnm2IxD8Tltnl5pM-12">
          <mxGeometry relative="1" as="geometry" />
        </mxCell>
        <mxCell id="MgfGYnm2IxD8Tltnl5pM-11" value="Project management plan" style="rounded=1;whiteSpace=wrap;html=1;" vertex="1" parent="1">
          <mxGeometry x="260" y="260" width="120" height="60" as="geometry" />
        </mxCell>
        <mxCell id="MgfGYnm2IxD8Tltnl5pM-12" value="Scope management" style="rounded=1;whiteSpace=wrap;html=1;" vertex="1" parent="1">
          <mxGeometry x="260" y="350" width="120" height="60" as="geometry" />
        </mxCell>
        <mxCell id="MgfGYnm2IxD8Tltnl5pM-33" style="edgeStyle=orthogonalEdgeStyle;rounded=0;orthogonalLoop=1;jettySize=auto;html=1;entryX=0.5;entryY=0;entryDx=0;entryDy=0;" edge="1" parent="1" source="MgfGYnm2IxD8Tltnl5pM-13">
          <mxGeometry relative="1" as="geometry">
            <mxPoint x="480" y="350" as="targetPoint" />
          </mxGeometry>
        </mxCell>
        <mxCell id="MgfGYnm2IxD8Tltnl5pM-13" value="System infrastructure establishment" style="rounded=1;whiteSpace=wrap;html=1;" vertex="1" parent="1">
          <mxGeometry x="420" y="260" width="120" height="60" as="geometry" />
        </mxCell>
        <mxCell id="MgfGYnm2IxD8Tltnl5pM-15" value="Dataset preparation" style="rounded=1;whiteSpace=wrap;html=1;" vertex="1" parent="1">
          <mxGeometry x="420" y="350" width="120" height="60" as="geometry" />
        </mxCell>
        <mxCell id="MgfGYnm2IxD8Tltnl5pM-39" style="edgeStyle=orthogonalEdgeStyle;rounded=0;orthogonalLoop=1;jettySize=auto;html=1;entryX=0.5;entryY=0;entryDx=0;entryDy=0;" edge="1" parent="1" source="MgfGYnm2IxD8Tltnl5pM-20" target="MgfGYnm2IxD8Tltnl5pM-21">
          <mxGeometry relative="1" as="geometry" />
        </mxCell>
        <mxCell id="MgfGYnm2IxD8Tltnl5pM-20" value="Audit product" style="rounded=1;whiteSpace=wrap;html=1;" vertex="1" parent="1">
          <mxGeometry x="580" y="260" width="120" height="60" as="geometry" />
        </mxCell>
        <mxCell id="MgfGYnm2IxD8Tltnl5pM-21" value="Deploy product" style="rounded=1;whiteSpace=wrap;html=1;" vertex="1" parent="1">
          <mxGeometry x="580" y="350" width="120" height="60" as="geometry" />
        </mxCell>
        <mxCell id="MgfGYnm2IxD8Tltnl5pM-40" style="edgeStyle=orthogonalEdgeStyle;rounded=0;orthogonalLoop=1;jettySize=auto;html=1;entryX=0.5;entryY=0;entryDx=0;entryDy=0;" edge="1" parent="1" target="MgfGYnm2IxD8Tltnl5pM-42">
          <mxGeometry relative="1" as="geometry">
            <mxPoint x="320" y="410" as="sourcePoint" />
          </mxGeometry>
        </mxCell>
        <mxCell id="MgfGYnm2IxD8Tltnl5pM-41" style="edgeStyle=orthogonalEdgeStyle;rounded=0;orthogonalLoop=1;jettySize=auto;html=1;entryX=0.5;entryY=0;entryDx=0;entryDy=0;" edge="1" parent="1" source="MgfGYnm2IxD8Tltnl5pM-42" target="MgfGYnm2IxD8Tltnl5pM-43">
          <mxGeometry relative="1" as="geometry" />
        </mxCell>
        <mxCell id="MgfGYnm2IxD8Tltnl5pM-42" value="Time management" style="rounded=1;whiteSpace=wrap;html=1;" vertex="1" parent="1">
          <mxGeometry x="260" y="440" width="120" height="60" as="geometry" />
        </mxCell>
        <mxCell id="MgfGYnm2IxD8Tltnl5pM-43" value="Human resource management" style="rounded=1;whiteSpace=wrap;html=1;" vertex="1" parent="1">
          <mxGeometry x="260" y="530" width="120" height="60" as="geometry" />
        </mxCell>
        <mxCell id="MgfGYnm2IxD8Tltnl5pM-44" style="edgeStyle=orthogonalEdgeStyle;rounded=0;orthogonalLoop=1;jettySize=auto;html=1;entryX=0.5;entryY=0;entryDx=0;entryDy=0;" edge="1" parent="1" target="MgfGYnm2IxD8Tltnl5pM-46">
          <mxGeometry relative="1" as="geometry">
            <mxPoint x="320" y="590" as="sourcePoint" />
          </mxGeometry>
        </mxCell>
        <mxCell id="MgfGYnm2IxD8Tltnl5pM-45" style="edgeStyle=orthogonalEdgeStyle;rounded=0;orthogonalLoop=1;jettySize=auto;html=1;entryX=0.5;entryY=0;entryDx=0;entryDy=0;" edge="1" parent="1" source="MgfGYnm2IxD8Tltnl5pM-46" target="MgfGYnm2IxD8Tltnl5pM-47">
          <mxGeometry relative="1" as="geometry" />
        </mxCell>
        <mxCell id="MgfGYnm2IxD8Tltnl5pM-46" value="Communication management" style="rounded=1;whiteSpace=wrap;html=1;" vertex="1" parent="1">
          <mxGeometry x="260" y="620" width="120" height="60" as="geometry" />
        </mxCell>
        <mxCell id="MgfGYnm2IxD8Tltnl5pM-47" value="Cost management" style="rounded=1;whiteSpace=wrap;html=1;" vertex="1" parent="1">
          <mxGeometry x="260" y="710" width="120" height="60" as="geometry" />
        </mxCell>
        <mxCell id="MgfGYnm2IxD8Tltnl5pM-48" style="edgeStyle=orthogonalEdgeStyle;rounded=0;orthogonalLoop=1;jettySize=auto;html=1;entryX=0.5;entryY=0;entryDx=0;entryDy=0;" edge="1" parent="1" target="MgfGYnm2IxD8Tltnl5pM-50">
          <mxGeometry relative="1" as="geometry">
            <mxPoint x="320" y="770" as="sourcePoint" />
          </mxGeometry>
        </mxCell>
        <mxCell id="MgfGYnm2IxD8Tltnl5pM-49" style="edgeStyle=orthogonalEdgeStyle;rounded=0;orthogonalLoop=1;jettySize=auto;html=1;entryX=0.5;entryY=0;entryDx=0;entryDy=0;" edge="1" parent="1" source="MgfGYnm2IxD8Tltnl5pM-50" target="MgfGYnm2IxD8Tltnl5pM-51">
          <mxGeometry relative="1" as="geometry" />
        </mxCell>
        <mxCell id="MgfGYnm2IxD8Tltnl5pM-50" value="Risk management" style="rounded=1;whiteSpace=wrap;html=1;" vertex="1" parent="1">
          <mxGeometry x="260" y="800" width="120" height="60" as="geometry" />
        </mxCell>
        <mxCell id="MgfGYnm2IxD8Tltnl5pM-51" value="Quality management" style="rounded=1;whiteSpace=wrap;html=1;" vertex="1" parent="1">
          <mxGeometry x="260" y="890" width="120" height="60" as="geometry" />
        </mxCell>
        <mxCell id="MgfGYnm2IxD8Tltnl5pM-52" style="edgeStyle=orthogonalEdgeStyle;rounded=0;orthogonalLoop=1;jettySize=auto;html=1;entryX=0.5;entryY=0;entryDx=0;entryDy=0;" edge="1" parent="1" target="MgfGYnm2IxD8Tltnl5pM-54">
          <mxGeometry relative="1" as="geometry">
            <mxPoint x="480" y="410" as="sourcePoint" />
          </mxGeometry>
        </mxCell>
        <mxCell id="MgfGYnm2IxD8Tltnl5pM-53" style="edgeStyle=orthogonalEdgeStyle;rounded=0;orthogonalLoop=1;jettySize=auto;html=1;entryX=0.5;entryY=0;entryDx=0;entryDy=0;" edge="1" parent="1" source="MgfGYnm2IxD8Tltnl5pM-54" target="MgfGYnm2IxD8Tltnl5pM-55">
          <mxGeometry relative="1" as="geometry" />
        </mxCell>
        <mxCell id="MgfGYnm2IxD8Tltnl5pM-54" value="Machine learning logic design" style="rounded=1;whiteSpace=wrap;html=1;" vertex="1" parent="1">
          <mxGeometry x="420" y="440" width="120" height="60" as="geometry" />
        </mxCell>
        <mxCell id="MgfGYnm2IxD8Tltnl5pM-55" value="Model performance examination" style="rounded=1;whiteSpace=wrap;html=1;" vertex="1" parent="1">
          <mxGeometry x="420" y="530" width="120" height="60" as="geometry" />
        </mxCell>
        <mxCell id="MgfGYnm2IxD8Tltnl5pM-56" style="edgeStyle=orthogonalEdgeStyle;rounded=0;orthogonalLoop=1;jettySize=auto;html=1;entryX=0.5;entryY=0;entryDx=0;entryDy=0;" edge="1" parent="1" target="MgfGYnm2IxD8Tltnl5pM-58">
          <mxGeometry relative="1" as="geometry">
            <mxPoint x="480" y="590" as="sourcePoint" />
          </mxGeometry>
        </mxCell>
        <mxCell id="MgfGYnm2IxD8Tltnl5pM-57" style="edgeStyle=orthogonalEdgeStyle;rounded=0;orthogonalLoop=1;jettySize=auto;html=1;entryX=0.5;entryY=0;entryDx=0;entryDy=0;" edge="1" parent="1" source="MgfGYnm2IxD8Tltnl5pM-58" target="MgfGYnm2IxD8Tltnl5pM-59">
          <mxGeometry relative="1" as="geometry" />
        </mxCell>
        <mxCell id="MgfGYnm2IxD8Tltnl5pM-58" value="Web service integration" style="rounded=1;whiteSpace=wrap;html=1;" vertex="1" parent="1">
          <mxGeometry x="420" y="620" width="120" height="60" as="geometry" />
        </mxCell>
        <mxCell id="MgfGYnm2IxD8Tltnl5pM-59" value="Test" style="rounded=1;whiteSpace=wrap;html=1;" vertex="1" parent="1">
          <mxGeometry x="420" y="710" width="120" height="60" as="geometry" />
        </mxCell>
        <mxCell id="MgfGYnm2IxD8Tltnl5pM-64" style="edgeStyle=orthogonalEdgeStyle;rounded=0;orthogonalLoop=1;jettySize=auto;html=1;entryX=0.5;entryY=0;entryDx=0;entryDy=0;" edge="1" parent="1" target="MgfGYnm2IxD8Tltnl5pM-65">
          <mxGeometry relative="1" as="geometry">
            <mxPoint x="640" y="410" as="sourcePoint" />
          </mxGeometry>
        </mxCell>
        <mxCell id="MgfGYnm2IxD8Tltnl5pM-65" value="Document handover" style="rounded=1;whiteSpace=wrap;html=1;" vertex="1" parent="1">
          <mxGeometry x="580" y="440" width="120" height="60" as="geometry" />
        </mxCell>
      </root>
    </mxGraphModel>
  </diagram>
</mxfile>
